<svg id="Layer_1" data-name="Layer 1" xmlns="http://www.w3.org/2000/svg" width="69.19mm" height="48.51mm" viewBox="0 0 196.12 137.52"><defs><style>.cls-1,.cls-2{fill:#67714d;}.cls-2{stroke:#67714d;stroke-miterlimit:10;}</style></defs><path class="cls-1" d="M84,126.26h-1c0-.3,0-1.59,0-3.88s0-5.11,0-8.47h-7.6V121c0,3.16,0,4.92,0,5.29h-1c0-.32,0-1.54,0-3.65s0-5.11,0-9v-5.78c0-1.92,0-4,0-6.2h1c0,1,0,2.58,0,4.6V113h7.6V101.61h1q0,4.67,0,7.26c0,1.74,0,3.15,0,4.23v13.16Z" transform="translate(-1.01 -3.7)"/><path class="cls-1" d="M97.54,126.16l-1,.23c-.26-1.25-.56-2.63-.89-4.13s-.76-3.4-1.27-5.72H88.81c-.48,2.09-.9,4-1.28,5.73s-.66,3.11-.85,4.12l-1-.21q.51-2.75,2.59-12.38t2.86-12.28H92q1,4.61,3,13.33T97.54,126.16Zm-3.39-10.5c-.41-1.86-.86-4-1.36-6.32s-.9-4.13-1.19-5.33h-.08q-.58,2.7-1.3,5.92T89,115.66v0h5.16Z" transform="translate(-1.01 -3.7)"/><path class="cls-1" d="M100.38,126.26h-1c0-.48,0-1.71,0-3.69s0-4.86,0-8.63v-5.52c0-2.12,0-4.39,0-6.81h1c0,2,0,4.15,0,6.49s0,4.22,0,5.64q0,4.16,0,8.06C100.37,124.41,100.38,125.89,100.38,126.26Z" transform="translate(-1.01 -3.7)"/><path class="cls-1" d="M113.27,126l-.94.38c-.15-.33-.75-1.81-1.82-4.45s-2-4.86-2.89-6.67l.28-.54a2.24,2.24,0,0,0,1-.44,4.11,4.11,0,0,0,.86-1,5.24,5.24,0,0,0,.64-1.78,15.34,15.34,0,0,0,.22-2.9,11.19,11.19,0,0,0-.36-3,5.08,5.08,0,0,0-1-2,4,4,0,0,0-1.23-.94,3.57,3.57,0,0,0-1.57-.31c-.17,0-.39,0-.66,0h-.54c0,1.9,0,3.91,0,6.06v13c0,2.78,0,4.36,0,4.73h-1c0-.38,0-1.61,0-3.7V108.85q0-3,0-7.24l1,0,1.13,0a5.54,5.54,0,0,1,2.09.36A4.38,4.38,0,0,1,110,103a5.48,5.48,0,0,1,1.18,2.16,10.35,10.35,0,0,1,.46,3.2,12.59,12.59,0,0,1-.69,4.55,4.09,4.09,0,0,1-2.07,2.38l-.06.11c.53,1.15,1.37,3.15,2.54,6S113.16,125.8,113.27,126Z" transform="translate(-1.01 -3.7)"/><path class="cls-1" d="M122.06,126.26H115c0-.73,0-2.09,0-4.1v-8.79c0-2,0-4.09,0-6.34s0-4.06,0-5.42H116c0,.71,0,2.08,0,4.1s0,4.21,0,6.58q0,4.08,0,8.34c0,2.85,0,4.41,0,4.71h6Z" transform="translate(-1.01 -3.7)"/><path class="cls-1" d="M134.34,113.94a44.24,44.24,0,0,1-.4,6.41,11,11,0,0,1-1.33,4.12,4.32,4.32,0,0,1-3.81,2.12,5,5,0,0,1-2.22-.53,4.5,4.5,0,0,1-1.87-1.86,11.27,11.27,0,0,1-1.12-3.83,45.29,45.29,0,0,1-.35-6.35,38.92,38.92,0,0,1,.44-6.51,11.63,11.63,0,0,1,1.38-4.11,4.24,4.24,0,0,1,3.74-2.14,4.08,4.08,0,0,1,2,.56,5.2,5.2,0,0,1,1.74,1.89,13.11,13.11,0,0,1,1.3,4A36.28,36.28,0,0,1,134.34,113.94Zm-1.05-.43a31,31,0,0,0-.45-5.75,12.25,12.25,0,0,0-1.23-3.67,4.4,4.4,0,0,0-1.34-1.47,2.79,2.79,0,0,0-1.48-.46,2.86,2.86,0,0,0-1.51.43,3.84,3.84,0,0,0-1.26,1.3,11.51,11.51,0,0,0-1.28,3.85,35.62,35.62,0,0,0-.45,6.21,40.78,40.78,0,0,0,.37,6.13,11.11,11.11,0,0,0,1.12,3.71,3.56,3.56,0,0,0,1.36,1.47,3.44,3.44,0,0,0,1.65.43,3.29,3.29,0,0,0,1.52-.38,3.24,3.24,0,0,0,1.26-1.26,11.11,11.11,0,0,0,1.27-3.84A39.37,39.37,0,0,0,133.29,113.51Z" transform="translate(-1.01 -3.7)"/><path class="cls-1" d="M146.69,101.61c0,2.36,0,4.31,0,5.85s0,2.88,0,4c0,1.58,0,2.9,0,4s0,2,0,2.71a22.8,22.8,0,0,1-.38,4.72,5,5,0,0,1-1.21,2.51,3.91,3.91,0,0,1-1.38.91,5.47,5.47,0,0,1-3.63,0,4,4,0,0,1-1.42-1,4.73,4.73,0,0,1-1.21-2.55,24.46,24.46,0,0,1-.34-4.63c0-.75,0-1.65,0-2.71v-8c0-1.54,0-3.49,0-5.85h1c0,.42,0,1.49,0,3.22v13.3c0,3.26.35,5.33,1.06,6.23a3.25,3.25,0,0,0,2.66,1.35,3.11,3.11,0,0,0,2.78-1.56c.66-1,1-3,1-6V101.61Z" transform="translate(-1.01 -3.7)"/><path class="cls-1" d="M160.29,101.61c0,2,0,4,0,5.76v6c0,2.75,0,5.45,0,8.1s0,4.23,0,4.72l-.9.22c-1.6-4.28-3.21-8.62-4.85-13s-2.67-7.31-3.1-8.65h0q0,5.07,0,12.85c0,5.19,0,8.09,0,8.72h-1c0-.43,0-1.51,0-3.24s0-4.39,0-8c0-1.57,0-3.56,0-6s0-4.83,0-7.31l1.07-.22q.44,1.41,3.37,9.46t4.41,11.56l0,0v-21Z" transform="translate(-1.01 -3.7)"/><path class="cls-1" d="M172.31,114c0,1.22,0,2.35,0,3.36v8.86a3.36,3.36,0,0,1-.59.09l-.57,0a9.38,9.38,0,0,1-3.07-.47,5.83,5.83,0,0,1-2.4-1.61,10,10,0,0,1-1.94-3.94,24.62,24.62,0,0,1-.72-6.5,19.92,19.92,0,0,1,.9-6.62,10.14,10.14,0,0,1,2.46-4,6.66,6.66,0,0,1,2.09-1.26,6.92,6.92,0,0,1,2.61-.49h.72v.92h-.67A6,6,0,0,0,167,104a10.27,10.27,0,0,0-2.05,3.47,18,18,0,0,0-.86,6.33,20.85,20.85,0,0,0,.83,6.57,9.15,9.15,0,0,0,2.32,3.82,5.15,5.15,0,0,0,1.77.92,7.82,7.82,0,0,0,2.31.32c0-.33,0-1.91,0-4.72s0-5.06,0-6.71Z" transform="translate(-1.01 -3.7)"/><path class="cls-1" d="M182.86,126.26h-7.2c0-.58,0-2.15,0-4.72V108c0-1.92,0-4,0-6.41h7.05v.87h-6c0,.94,0,2.57,0,4.88v5.7h6v.88h-6v11.45h6.15Z" transform="translate(-1.01 -3.7)"/><path class="cls-2" d="M67.51,21.82a4.26,4.26,0,0,0,.22-2.74c-2.38-4.84-1.82-9.59.35-14.35a66.85,66.85,0,0,0-64,48.64C-4.49,83.49,9.43,112.2,27.85,124.8c.06-.2.22-.43.16-.58-.31-.8-.66-1.59-1-2.36-6.71-14.38-11.7-29.21-12.16-45.27-.51-17.7,3.43-34.17,14.69-48.16,7.24-9,17.75-14.34,31.23-14.82-19.23,7.15-32.28,20-36.8,37.41-3.16,12.17-2.88,24.37-.44,36.57C26.82,104.13,35,118.64,43,133.18a4.83,4.83,0,0,0,2.55,1.76,68.58,68.58,0,0,0,23.75,4.22v-10a20.15,20.15,0,0,1-7.88-1.19,23,23,0,0,1-2.4-1c-.4-.19-.78-.39-1.17-.6a38.59,38.59,0,0,1-6.56-4.62c-.35-.29-.69-.59-1-.89a44.59,44.59,0,0,1-4.61-4.73q-1.4-1.67-2.62-3.42a54.38,54.38,0,0,1-4.28-7.39c-.61-1.28-1.19-2.59-1.72-3.92A87.71,87.71,0,0,1,33.65,91c-4.15-15.62-3.18-31.28,1.08-46.61C38,32.56,46.09,24.58,58.18,21.11a10.82,10.82,0,0,1,1.25-.3,3.46,3.46,0,0,1,.81.11c0,4.78-.49,9.65.1,14.38.95,7.56,3.83,14.06,9,19.2V40.75C66.11,35.18,65.42,28.86,67.51,21.82Z" transform="translate(-1.01 -3.7)"/><path class="cls-2" d="M69.3,111.52v-7.15H54.55C57,109.35,63.25,111.63,69.3,111.52Z" transform="translate(-1.01 -3.7)"/><path class="cls-2" d="M68.05,99.11c-5.12-2-8.47.78-11.76,4h13V99.22l0,0A1.71,1.71,0,0,1,68.05,99.11Z" transform="translate(-1.01 -3.7)"/><path class="cls-2" d="M37.15,56c6.88-3,12.74-1.47,18.37,2.3.89.6,2.52.08,4.42.08C54.22,51.79,41.44,50.28,37.15,56Z" transform="translate(-1.01 -3.7)"/><path class="cls-2" d="M107.19,43a2,2,0,0,0-1.62-.93,2.17,2.17,0,0,0-2,2.08c-.11.76,0,1.37.88,1.6A1.79,1.79,0,0,1,105.74,48c-.53,2.48-1.25,4.91-1.88,7.36-.21.81-.39,1.62-.58,2.44l.56.16a3.87,3.87,0,0,0,.43-.57,29.73,29.73,0,0,0,3.34-11.45,6.92,6.92,0,0,0-.42-2.93" transform="translate(-1.01 -3.7)"/><path class="cls-2" d="M92.47,47c-1.56-.54-2.58-.38-3.28,1.47s-2.79,1.7-3.74,0a18.56,18.56,0,0,1-.73-1.72l-2.49.82c1.54-3.42,8-3.85,10.8-.62-.25,0-.43.11-.56.06" transform="translate(-1.01 -3.7)"/><path class="cls-2" d="M83.41,39.68c2.15-.1,4.27-.56,6.41-.82,2.79-.34,5.11.84,7.37,2.37C91.08,40,85.4,43.12,79,43c1.28-1.89,2.27-3.25,4.4-3.35" transform="translate(-1.01 -3.7)"/><path class="cls-2" d="M97.19,41.23c-2.26-1.53-4.58-2.71-7.37-2.37-2.14.26-4.26.72-6.41.82S80.29,41.13,79,43c6.39.09,12.07-3,18.18-1.8" transform="translate(-1.01 -3.7)"/><path class="cls-2" d="M82.23,47.57l2.49-.82a18.56,18.56,0,0,0,.73,1.72c1,1.71,3.06,1.81,3.74,0s1.72-2,3.28-1.47c.13.05.31,0,.56-.07-2.82-3.22-9.26-2.79-10.8.63" transform="translate(-1.01 -3.7)"/><path class="cls-2" d="M74.34,74.68v.54c1.31,0,3.06.07,4.37.07a3.87,3.87,0,0,1,.72.2,29.84,29.84,0,0,0,9.39.17A17,17,0,0,0,92.29,75a18.07,18.07,0,0,1-5.73,4c-2.4.92-6.32,1-9,1-1.66,0-3.25-.11-3.25-.11V94.56C88.16,90,96,77.1,96,77.1a35.47,35.47,0,0,0,2.07-5.55A144.91,144.91,0,0,0,101,56.07c.39-1.92.84-3.83,1.08-5.77.73-5.78,1.16-11.59,1.92-17.37a26.11,26.11,0,0,0-2.76-16.48,28.61,28.61,0,0,0-6.95-8.08A17,17,0,0,0,83.21,4.2c-2.72,0-5.45.18-8.45.31v17h0a42.28,42.28,0,0,0,7.51-.67,45.34,45.34,0,0,0,7.49-2,5.32,5.32,0,0,1,2.36-.26A6.7,6.7,0,0,1,95.76,20a4.48,4.48,0,0,1,1.48,2.25l.33,1.31c1,3.8,1.93,7.6,2.63,11.45.51,2.8.46,5.71.75,9.76.57,3.43-.16,7.69-1.16,12.05a9.59,9.59,0,0,0-2.86,4.32c-.75,3-2.1,8.86-2.1,10.21a1.94,1.94,0,0,1-.3.84,14.22,14.22,0,0,1-10.61-1.65c-.85-.62-1.75-1.17-2.6-1.8A6,6,0,0,0,75.88,68a7.81,7.81,0,0,1-1.54.12l0,4.65s0,0,0,0Z" transform="translate(-1.01 -3.7)"/><path class="cls-2" d="M97.19,41.23c-2.26-1.53-4.58-2.71-7.37-2.37-2.14.26-4.26.72-6.41.82S80.29,41.14,79,43c6.39.09,12.07-3,18.18-1.8" transform="translate(-1.01 -3.7)"/><path class="cls-2" d="M82.23,47.57l2.49-.82a18.56,18.56,0,0,0,.73,1.72c1,1.71,3.06,1.81,3.74,0s1.72-2,3.28-1.47c.13.05.31,0,.56-.06-2.82-3.23-9.26-2.8-10.8.62" transform="translate(-1.01 -3.7)"/><path class="cls-2" d="M40.18,65.46,43,64.64a17.57,17.57,0,0,0,.82,1.71A2.73,2.73,0,0,0,48.49,66c.79-1.85,1.55-1.61,3.32-1.07a2.37,2.37,0,0,0,.63-.07c-3.19-3.22-10.51-2.79-12.26.63" transform="translate(-1.01 -3.7)"/><path class="cls-1" d="M76.92,139.07a2.22,2.22,0,0,1-1.18-.28,1.59,1.59,0,0,1-.66-.73h0V139h-.87v-8.4h.91v3.24h0a1.33,1.33,0,0,1,.6-.75,2.07,2.07,0,0,1,1.22-.32,2.21,2.21,0,0,1,1.72.7,2.69,2.69,0,0,1,.65,1.9v1.13a2.67,2.67,0,0,1-.66,1.91A2.3,2.3,0,0,1,76.92,139.07Zm-.13-.81a1.47,1.47,0,0,0,1.17-.51,2.26,2.26,0,0,0,.43-1.5v-.68a2.26,2.26,0,0,0-.43-1.49,1.48,1.48,0,0,0-1.2-.53,1.8,1.8,0,0,0-.71.14,1.5,1.5,0,0,0-.52.37,1.77,1.77,0,0,0-.33.59,2.39,2.39,0,0,0-.12.77v1.09a1.73,1.73,0,0,0,.48,1.25A1.61,1.61,0,0,0,76.79,138.26Z" transform="translate(-1.01 -3.7)"/><path class="cls-1" d="M89,132.83,86.82,139l-.15.43c-.11.27-.2.48-.29.65a2.88,2.88,0,0,1-.35.54,1.43,1.43,0,0,1-.56.42,2.05,2.05,0,0,1-.78.14,4,4,0,0,1-.59-.05v-.77a2.49,2.49,0,0,0,.45,0,1.12,1.12,0,0,0,.79-.25,1.54,1.54,0,0,0,.43-.76l.09-.35-2.29-6.24h1L86.31,138h0l1.71-5.19Z" transform="translate(-1.01 -3.7)"/><path class="cls-1" d="M100.19,134.42v1.17a3,3,0,0,0,.58,2,2,2,0,0,0,1.62.67,2,2,0,0,0,1.44-.49,1.58,1.58,0,0,0,.52-1.19h.91a2.2,2.2,0,0,1-.17.86,3.1,3.1,0,0,1-.51.82,2.52,2.52,0,0,1-.92.62,3.58,3.58,0,0,1-1.32.23,2.87,2.87,0,0,1-2.25-.91,3.73,3.73,0,0,1-.83-2.62V134.4a3.81,3.81,0,0,1,.84-2.63,2.86,2.86,0,0,1,2.25-1,3.25,3.25,0,0,1,1.28.24,2.37,2.37,0,0,1,.92.62,3,3,0,0,1,.53.86,2.62,2.62,0,0,1,.18,1h-.91a1.76,1.76,0,0,0-.54-1.26,2.13,2.13,0,0,0-3,.15A3.08,3.08,0,0,0,100.19,134.42Z" transform="translate(-1.01 -3.7)"/><path class="cls-1" d="M115.07,132.83V139h-.91v-1h-.06a1.69,1.69,0,0,1-.62.78,2,2,0,0,1-1.2.33,2.3,2.3,0,0,1-1.55-.47,1.79,1.79,0,0,1-.57-1.47v-4.3h.93v4.06a1.23,1.23,0,0,0,1.4,1.39,1.65,1.65,0,0,0,1.18-.45,1.38,1.38,0,0,0,.49-1.06v-3.94Z" transform="translate(-1.01 -3.7)"/><path class="cls-1" d="M120.44,139v-6.14h.92v.95h0a1.65,1.65,0,0,1,.56-.72,1.85,1.85,0,0,1,1.15-.31,2.71,2.71,0,0,1,.36,0v.85a2.71,2.71,0,0,0-.47,0,1.94,1.94,0,0,0-.91.2,1.33,1.33,0,0,0-.56.54,1.54,1.54,0,0,0-.18.75V139Z" transform="translate(-1.01 -3.7)"/><path class="cls-1" d="M128.35,132.83v-1.54h.92v1.54h1.39v.79h-1.39v3.69a1.46,1.46,0,0,0,.09.58.51.51,0,0,0,.31.28,1.87,1.87,0,0,0,.61.08l.47,0V139a3.76,3.76,0,0,1-.71.05,3.33,3.33,0,0,1-.86-.1,1,1,0,0,1-.52-.34,1.21,1.21,0,0,1-.24-.54,3.44,3.44,0,0,1-.07-.79v-3.64h-.94v-.79Z" transform="translate(-1.01 -3.7)"/><path class="cls-1" d="M146.89,139l-.73-.79a3.73,3.73,0,0,1-2.54.95,2.92,2.92,0,0,1-1.89-.62,2,2,0,0,1-.76-1.64,2,2,0,0,1,.41-1.28,3.66,3.66,0,0,1,1.15-.93l.14-.07.15-.08a5.7,5.7,0,0,1-.72-.92,1.72,1.72,0,0,1-.26-.91,1.64,1.64,0,0,1,.56-1.25,2,2,0,0,1,1.42-.51,2.25,2.25,0,0,1,1,.23,1.83,1.83,0,0,1,.72.63,1.7,1.7,0,0,1,.26.92,1.55,1.55,0,0,1-.44,1.12,4.83,4.83,0,0,1-1.27.89l2,2.18a5.11,5.11,0,0,0,.38-2.26v-.21h.88v.2a5.4,5.4,0,0,1-.64,2.9l1.37,1.45Zm-3.82-3.75a2.8,2.8,0,0,0-.88.68,1.45,1.45,0,0,0-.29.9,1.33,1.33,0,0,0,.52,1.14,2.09,2.09,0,0,0,1.28.39,3.14,3.14,0,0,0,1-.18,2.15,2.15,0,0,0,.89-.56l-2.27-2.51Zm.53-1a4.19,4.19,0,0,0,1-.67,1.06,1.06,0,0,0,.33-.8,1,1,0,0,0-.15-.54,1,1,0,0,0-.39-.38,1.25,1.25,0,0,0-.56-.13,1,1,0,0,0-1.08,1.07,1.3,1.3,0,0,0,.18.64A3.69,3.69,0,0,0,143.6,134.18Z" transform="translate(-1.01 -3.7)"/><path class="cls-1" d="M164.23,139h-.93v-3.72h-4.12V139h-.94v-8h.94v3.42h4.12V131h.93Z" transform="translate(-1.01 -3.7)"/><path class="cls-1" d="M171.82,139.07a2.46,2.46,0,0,1-1.89-.72,2.74,2.74,0,0,1-.68-1.95v-1a2.66,2.66,0,0,1,.7-1.94,2.57,2.57,0,0,1,3.59,0,2.66,2.66,0,0,1,.7,1.94v.75h-4.07v.31a1.92,1.92,0,0,0,.43,1.28,1.52,1.52,0,0,0,1.22.51,1.66,1.66,0,0,0,.89-.22,1,1,0,0,0,.47-.52h1a1.55,1.55,0,0,1-.2.51,2.22,2.22,0,0,1-.44.5,2.08,2.08,0,0,1-.71.39A3.1,3.1,0,0,1,171.82,139.07Zm-1.65-3.62h3.14v-.11a2.13,2.13,0,0,0-.19-.94,1.44,1.44,0,0,0-.56-.63,1.57,1.57,0,0,0-.82-.22,1.47,1.47,0,0,0-1.14.49,1.92,1.92,0,0,0-.43,1.3Z" transform="translate(-1.01 -3.7)"/><path class="cls-1" d="M179.08,130.92a.66.66,0,0,1,.2-.5.73.73,0,0,1,1,0,.66.66,0,0,1,.2.5.69.69,0,0,1-.09.36.58.58,0,0,1-.25.24.69.69,0,0,1-.35.08.66.66,0,0,1-.49-.19A.63.63,0,0,1,179.08,130.92Zm.23,8.05v-6.14h.92V139Z" transform="translate(-1.01 -3.7)"/><path class="cls-1" d="M187.75,132.74a2.12,2.12,0,0,1,1.17.29,1.53,1.53,0,0,1,.62.7h0v-3.16h.92V139h-.87v-1h0a1.41,1.41,0,0,1-.61.74,2.23,2.23,0,0,1-1.26.32,2.27,2.27,0,0,1-1.71-.68,2.56,2.56,0,0,1-.65-1.85v-1.27a2.52,2.52,0,0,1,.65-1.82A2.26,2.26,0,0,1,187.75,132.74Zm.12.81a1.44,1.44,0,0,0-1.18.52,2.14,2.14,0,0,0-.43,1.43v.8a2.16,2.16,0,0,0,.44,1.44,1.5,1.5,0,0,0,1.21.52,1.57,1.57,0,0,0,1.21-.5,1.89,1.89,0,0,0,.46-1.35v-1.15a1.66,1.66,0,0,0-1.71-1.71Z" transform="translate(-1.01 -3.7)"/><path class="cls-1" d="M195.69,130.92a.66.66,0,0,1,.2-.5.67.67,0,0,1,.49-.19.68.68,0,0,1,.5.19.69.69,0,0,1,.19.5.8.8,0,0,1-.08.36.64.64,0,0,1-.25.24.73.73,0,0,1-.36.08.67.67,0,0,1-.49-.19A.63.63,0,0,1,195.69,130.92Zm.23,8.05v-6.14h.92V139Z" transform="translate(-1.01 -3.7)"/><path class="cls-1" d="M188.63,108c0,.07,0,.15,0,.25s0,.22,0,.38h-.14a3.06,3.06,0,0,1-1.46-.33,2.87,2.87,0,0,1-1-.93,3.27,3.27,0,0,1-.46-1,4.56,4.56,0,0,1-.16-1.31,4.35,4.35,0,0,1,.24-1.49,3.32,3.32,0,0,1,.71-1.15,2.52,2.52,0,0,1,1-.63,2.89,2.89,0,0,1,1.1-.23h.18c0,.05,0,.13,0,.24s0,.23,0,.39h-.13a2.16,2.16,0,0,0-.86.17,2.11,2.11,0,0,0-.7.45,2.59,2.59,0,0,0-.61,1,4,4,0,0,0-.2,1.28,4.11,4.11,0,0,0,.2,1.34,2.53,2.53,0,0,0,.62,1,1.9,1.9,0,0,0,.7.46,2.57,2.57,0,0,0,.86.16h.17Z" transform="translate(-1.01 -3.7)"/><path class="cls-1" d="M192.51,104a2.6,2.6,0,0,1-.35,1.34,1.87,1.87,0,0,1-.89.83,3,3,0,0,1-.45.15,2.52,2.52,0,0,1-.6.06v2.18h-.73c0-.09,0-.45,0-1.07v-4c0-.54,0-1.15,0-1.84H190a3.46,3.46,0,0,1,1.16.15,1.8,1.8,0,0,1,1.13,1.13A3,3,0,0,1,192.51,104Zm-.74,0a2.66,2.66,0,0,0-.16-.93,1.42,1.42,0,0,0-.44-.61,1,1,0,0,0-.39-.18,3.15,3.15,0,0,0-.46,0h-.1v3.54h.11a2.27,2.27,0,0,0,.43,0,1.18,1.18,0,0,0,.41-.19,1.42,1.42,0,0,0,.44-.6A2.3,2.3,0,0,0,191.77,104Z" transform="translate(-1.01 -3.7)"/><path class="cls-1" d="M197.13,108.56h-.73c0-.14,0-.45,0-.93v-2.36h-2.29v2.09c0,.7,0,1.1,0,1.2h-.72v-1c0-.56,0-1.38,0-2.45,0-.45,0-1,0-1.55v-1.9h.72v1.43c0,.53,0,1.06,0,1.61h2.29v-1.51c0-.49,0-1,0-1.53h.73c0,.58,0,1.2,0,1.85v3.76C197.13,108,197.13,108.42,197.13,108.56Z" transform="translate(-1.01 -3.7)"/></svg>
