<?xml version="1.0" encoding="utf-8"?>
<!-- Generator: Adobe Illustrator 25.0.1, SVG Export Plug-In . SVG Version: 6.00 Build 0)  -->
<svg version="1.1" id="Layer_1" xmlns="http://www.w3.org/2000/svg" xmlns:xlink="http://www.w3.org/1999/xlink" x="0px" y="0px"
	 viewBox="0 0 198.4 138.6" style="enable-background:new 0 0 198.4 138.6;" xml:space="preserve">
<style type="text/css">
	.st0{fill:#FFFFFF;stroke:#FFFFFF;stroke-miterlimit:10;}
</style>
<g>
	<path class="st0" d="M83.9,122.8h-1c0-0.3,0-1.6,0-3.9c0-2.3,0-5.1,0-8.5c-0.2,0-0.8,0-1.7,0c-0.9,0-1.5,0-2,0c-0.7,0-1.5,0-2.4,0
		c-0.9,0-1.4,0-1.6,0c0,1.5,0,3.9,0,7.1c0,3.2,0,4.9,0,5.3h-1c0-0.3,0-1.5,0-3.6c0-2.1,0-5.1,0-9c0-1.9,0-3.9,0-5.8c0-1.9,0-4,0-6.2
		h1c0,1,0,2.6,0,4.6c0,2,0,4.3,0,6.8c0.2,0,0.6,0,1.4,0c0.8,0,1.6,0,2.5,0c0.6,0,1.3,0,2.1,0c0.8,0,1.3,0,1.6,0c0-2.3,0-4.5,0-6.5
		c0-2,0-3.7,0-4.9h1c0,3.1,0,5.5,0,7.3c0,1.7,0,3.1,0,4.2c0,1.7,0,4.2,0,7.4C83.9,120.4,83.9,122.3,83.9,122.8z"/>
	<path class="st0" d="M97.4,122.7l-1,0.2c-0.3-1.3-0.6-2.6-0.9-4.1c-0.3-1.5-0.8-3.4-1.3-5.7h-5.5c-0.5,2.1-0.9,4-1.3,5.7
		c-0.4,1.7-0.7,3.1-0.9,4.1l-1-0.2c0.3-1.8,1.2-6,2.6-12.4c1.4-6.4,2.3-10.5,2.9-12.3h0.9c0.7,3.1,1.7,7.5,3,13.3
		C96.2,117.3,97.1,121,97.4,122.7z M94,112.2c-0.4-1.9-0.9-4-1.4-6.3c-0.5-2.4-0.9-4.1-1.2-5.3l-0.1,0c-0.4,1.8-0.8,3.8-1.3,5.9
		c-0.5,2.1-0.9,4.1-1.2,5.7l0,0L94,112.2L94,112.2z"/>
	<path class="st0" d="M100.3,122.8h-1c0-0.5,0-1.7,0-3.7c0-2,0-4.9,0-8.6c0-1.6,0-3.4,0-5.5c0-2.1,0-4.4,0-6.8h1c0,2,0,4.2,0,6.5
		c0,2.3,0,4.2,0,5.6c0,2.8,0,5.5,0,8.1C100.3,121,100.3,122.5,100.3,122.8z"/>
	<path class="st0" d="M113.2,122.6l-0.9,0.4c-0.1-0.3-0.8-1.8-1.8-4.4c-1.1-2.6-2-4.9-2.9-6.7l0.3-0.5c0.3-0.1,0.7-0.2,1-0.4
		c0.3-0.2,0.6-0.6,0.9-1c0.3-0.4,0.5-1,0.6-1.8c0.1-0.7,0.2-1.7,0.2-2.9c0-1.1-0.1-2.1-0.4-3c-0.2-0.9-0.6-1.6-1-2
		c-0.4-0.4-0.8-0.7-1.2-0.9c-0.4-0.2-1-0.3-1.6-0.3c-0.2,0-0.4,0-0.7,0c-0.3,0-0.4,0-0.5,0c0,1.9,0,3.9,0,6.1c0,2.1,0,3.9,0,5.3
		c0,2.3,0,4.9,0,7.7c0,2.8,0,4.4,0,4.7h-1c0-0.4,0-1.6,0-3.7c0-2.1,0-5,0-8.6c0-1.4,0-3.1,0-5.1c0-2,0-4.4,0-7.2c0.2,0,0.5,0,1,0
		c0.4,0,0.8,0,1.1,0c0.8,0,1.5,0.1,2.1,0.4c0.6,0.2,1.1,0.6,1.6,1.1c0.5,0.5,0.9,1.2,1.2,2.2c0.3,1,0.5,2,0.5,3.2
		c0,1.9-0.2,3.4-0.7,4.5c-0.5,1.2-1.2,2-2.1,2.4l-0.1,0.1c0.5,1.2,1.4,3.2,2.5,6C112.4,120.8,113.1,122.4,113.2,122.6z"/>
	<path class="st0" d="M122,122.8c-0.3,0-0.8,0-1.6,0c-0.8,0-1.5,0-2.1,0c-0.6,0-1.2,0-1.8,0c-0.6,0-1.1,0-1.5,0c0-0.7,0-2.1,0-4.1
		c0-2,0-4.9,0-8.8c0-2,0-4.1,0-6.3c0-2.3,0-4.1,0-5.4h1c0,0.7,0,2.1,0,4.1c0,2,0,4.2,0,6.6c0,2.7,0,5.5,0,8.3c0,2.8,0,4.4,0,4.7
		c0.3,0,0.7,0,1.2,0c0.5,0,1,0,1.5,0c0.7,0,1.3,0,1.9,0c0.6,0,1.1,0,1.4,0V122.8z"/>
	<path class="st0" d="M134.2,110.5c0,2.5-0.1,4.7-0.4,6.4c-0.3,1.7-0.7,3.1-1.3,4.1c-0.5,0.7-1,1.3-1.7,1.6
		c-0.6,0.3-1.4,0.5-2.1,0.5c-0.8,0-1.5-0.2-2.2-0.5c-0.7-0.3-1.3-1-1.9-1.9c-0.5-0.9-0.9-2.2-1.1-3.8c-0.2-1.6-0.3-3.7-0.3-6.4
		c0-2.6,0.1-4.8,0.4-6.5c0.3-1.7,0.8-3.1,1.4-4.1c0.5-0.7,1-1.3,1.6-1.6c0.6-0.3,1.3-0.5,2.1-0.5c0.7,0,1.4,0.2,2.1,0.6
		c0.6,0.4,1.2,1,1.7,1.9c0.6,1,1,2.3,1.3,4C134.1,106,134.2,108,134.2,110.5z M133.2,110.1c0-2.3-0.2-4.2-0.5-5.7
		c-0.3-1.6-0.7-2.8-1.2-3.7c-0.4-0.7-0.9-1.2-1.3-1.5c-0.5-0.3-1-0.5-1.5-0.5c-0.5,0-1,0.1-1.5,0.4c-0.5,0.3-0.9,0.7-1.3,1.3
		c-0.6,0.9-1,2.2-1.3,3.8c-0.3,1.7-0.5,3.7-0.5,6.2c0,2.5,0.1,4.5,0.4,6.1s0.6,2.8,1.1,3.7c0.4,0.7,0.8,1.2,1.4,1.5
		c0.5,0.3,1.1,0.4,1.7,0.4c0.5,0,1-0.1,1.5-0.4c0.5-0.3,0.9-0.7,1.3-1.3c0.6-0.9,1-2.2,1.3-3.8C133,115.1,133.2,112.9,133.2,110.1z"
		/>
	<path class="st0" d="M146.6,98.2c0,2.4,0,4.3,0,5.8c0,1.5,0,2.9,0,4c0,1.6,0,2.9,0,4c0,1.1,0,2,0,2.7c0,2-0.1,3.6-0.4,4.7
		c-0.3,1.1-0.7,2-1.2,2.5c-0.4,0.4-0.9,0.7-1.4,0.9c-0.5,0.2-1.1,0.3-1.8,0.3c-0.7,0-1.3-0.1-1.8-0.3s-1-0.5-1.4-1
		c-0.6-0.6-1-1.4-1.2-2.5c-0.2-1.1-0.3-2.7-0.3-4.6c0-0.7,0-1.7,0-2.7c0-1.1,0-2.4,0-4c0-1.1,0-2.5,0-4c0-1.5,0-3.5,0-5.8h1
		c0,0.4,0,1.5,0,3.2c0,1.7,0,4.1,0,7c0,1.1,0,2.2,0,3.2c0,1,0,2.1,0,3.1c0,3.3,0.4,5.3,1.1,6.2c0.7,0.9,1.6,1.3,2.7,1.3
		c1.2,0,2.1-0.5,2.8-1.6c0.7-1,1-3,1-6c0-1,0-2.1,0-3.1s0-2.1,0-3.2c0-2.9,0-5.2,0-7c0-1.7,0-2.8,0-3.2H146.6z"/>
	<path class="st0" d="M160.2,98.2c0,2,0,4,0,5.8s0,3.8,0,6c0,2.7,0,5.4,0,8.1c0,2.7,0,4.2,0,4.7l-0.9,0.2c-1.6-4.3-3.2-8.6-4.9-13
		c-1.6-4.4-2.7-7.3-3.1-8.6h0c0,3.4,0,7.7,0,12.8c0,5.2,0,8.1,0,8.7h-1c0-0.4,0-1.5,0-3.2c0-1.7,0-4.4,0-8c0-1.6,0-3.6,0-6
		c0-2.4,0-4.8,0-7.3l1.1-0.2c0.3,0.9,1.4,4.1,3.4,9.5c2,5.4,3.4,9.2,4.4,11.6l0,0c0-2.4,0-5.8,0-10.3c0-4.5,0-8,0-10.7H160.2z"/>
	<path class="st0" d="M172.2,110.6c0,1.2,0,2.4,0,3.4c0,1,0,1.9,0,2.7c0,1.1,0,2.3,0,3.7c0,1.4,0,2.2,0,2.5c-0.1,0-0.3,0.1-0.6,0.1
		c-0.2,0-0.4,0-0.6,0c-1.2,0-2.2-0.2-3.1-0.5c-0.9-0.3-1.7-0.8-2.4-1.6c-0.8-0.9-1.5-2.2-1.9-3.9c-0.5-1.7-0.7-3.9-0.7-6.5
		c0-2.8,0.3-5,0.9-6.6c0.6-1.7,1.4-3,2.5-4c0.6-0.5,1.3-0.9,2.1-1.3c0.8-0.3,1.7-0.5,2.6-0.5c0.1,0,0.3,0,0.4,0c0.1,0,0.2,0,0.3,0
		l0,0.9c-0.1,0-0.2,0-0.4,0c-0.1,0-0.3,0-0.3,0c-0.8,0-1.6,0.1-2.3,0.4c-0.7,0.3-1.3,0.7-1.9,1.2c-0.8,0.8-1.5,2-2.1,3.5
		c-0.6,1.5-0.9,3.6-0.9,6.3c0,2.7,0.3,4.9,0.8,6.6c0.6,1.6,1.3,2.9,2.3,3.8c0.5,0.4,1.1,0.7,1.8,0.9c0.7,0.2,1.4,0.3,2.3,0.3
		c0-0.3,0-1.9,0-4.7c0-2.8,0-5.1,0-6.7H172.2z"/>
	<path class="st0" d="M182.8,122.8c-0.6,0-1.4,0-2.5,0c-1.1,0-1.5,0-1.2,0c0.1,0-0.4,0-1.4,0c-1.1,0-1.8,0-2,0c0-0.6,0-2.2,0-4.7
		c0-2.6,0-5.3,0-8.1c0-1.7,0-3.5,0-5.4s0-4,0-6.4c0.4,0,0.9,0,1.5,0c0.6,0,1.2,0,1.8,0c0.5,0,1,0,1.7,0c0.7,0,1.3,0,1.9,0v0.9
		c-0.5,0-1,0-1.5,0c-0.5,0-1.1,0-1.8,0c-0.6,0-1.2,0-1.7,0c-0.5,0-0.8,0-1.1,0c0,0.9,0,2.6,0,4.9s0,4.2,0,5.7c0.4,0,1,0,1.7,0
		c0.7,0,1,0,0.8,0c0,0,0.5,0,1.3,0c0.8,0,1.6,0,2.2,0v0.9c-0.5,0-1.2,0-2.1,0c-0.9,0-1.4,0-1.5,0c0.1,0-0.1,0-0.8,0
		c-0.7,0-1.2,0-1.6,0c0,0.7,0,2.6,0,5.6c0,3,0,5,0,5.9c0.3,0,0.7,0,1.2,0c0.5,0,1.1,0,1.7,0c0.5,0,1.1,0,1.6,0c0.6,0,1.1,0,1.6,0
		V122.8z"/>
</g>
<g>
	<path class="st0" d="M67.4,18.4c0.3-0.9,0.6-2,0.2-2.7c-2.4-4.8-1.8-9.6,0.3-14.3C40.4,1.2,12.7,19.5,4,49.9
		c-8.6,30.1,5.3,58.8,23.7,71.4c0.1-0.2,0.2-0.4,0.2-0.6c-0.3-0.8-0.7-1.6-1-2.4c-6.7-14.4-11.7-29.2-12.2-45.3
		C14.2,55.5,18.1,39,29.4,25c7.2-9,17.8-14.3,31.2-14.8c-19.2,7.2-32.3,20-36.8,37.4C20.7,59.8,21,72,23.4,84.2
		c3.3,16.5,11.5,31.1,19.5,45.6c0.5,0.8,1.6,1.4,2.6,1.8c8,2.9,15.9,4.3,23.8,4.2v-10c-2.8,0.1-5.4-0.3-7.9-1.2
		c-0.8-0.3-1.6-0.6-2.4-1c-0.4-0.2-0.8-0.4-1.2-0.6c-2.3-1.3-4.5-2.9-6.6-4.6c-0.3-0.3-0.7-0.6-1-0.9c-1.7-1.5-3.2-3.1-4.6-4.7
		c-0.9-1.1-1.8-2.2-2.6-3.4c-1.6-2.3-3-4.8-4.3-7.4c-0.6-1.3-1.2-2.6-1.7-3.9c-1.3-3.3-2.4-6.8-3.4-10.3C29.4,72,30.4,56.3,34.6,41
		C37.9,29.1,46,21.2,58.1,17.7c0.4-0.1,0.8-0.2,1.3-0.3c0.2,0,0.4,0.1,0.8,0.1c0,4.8-0.5,9.6,0.1,14.4c0.9,7.6,3.8,14.1,9,19.2V37.3
		C66,31.8,65.3,25.4,67.4,18.4z"/>
	<path class="st0" d="M69.2,108.1v-7.2c-4.9,0-9.8,0-14.8,0C56.9,105.9,63.1,108.2,69.2,108.1z"/>
	<path class="st0" d="M67.9,95.7c-5.1-2.1-8.5,0.8-11.8,4c4.4,0,8.7,0,13,0v-3.9c0,0,0,0-0.1,0C68.8,96,68.3,95.8,67.9,95.7z"/>
	<path class="st0" d="M37,52.6c6.9-3,12.7-1.5,18.4,2.3c0.9,0.6,2.5,0.1,4.4,0.1C54.1,48.4,41.3,46.9,37,52.6z"/>
</g>
<path class="st0" d="M107.1,39.6c-0.2-0.5-1.1-1-1.6-0.9c-1.1,0.1-1.9,0.9-2,2.1c-0.1,0.8,0,1.4,0.9,1.6c1.1,0.3,1.5,1.3,1.3,2.2
	c-0.5,2.5-1.2,4.9-1.9,7.4c-0.2,0.8-0.4,1.6-0.6,2.4c0.2,0.1,0.4,0.1,0.6,0.2c0.1-0.2,0.3-0.4,0.4-0.6c1.8-3.6,3-7.4,3.3-11.5
	C107.6,41.5,107.4,40.5,107.1,39.6"/>
<path class="st0" d="M92.4,43.6c-1.6-0.5-2.6-0.4-3.3,1.5c-0.7,1.8-2.8,1.7-3.7,0c-0.3-0.5-0.4-1-0.7-1.7c-0.9,0.3-1.7,0.6-2.5,0.8
	c1.5-3.4,8-3.9,10.8-0.6C92.7,43.6,92.5,43.6,92.4,43.6"/>
<path class="st0" d="M83.3,36.3c2.1-0.1,4.3-0.6,6.4-0.8c2.8-0.3,5.1,0.8,7.4,2.4c-6.1-1.2-11.8,1.9-18.2,1.8
	C80.2,37.7,81.2,36.4,83.3,36.3"/>
<path class="st0" d="M97.1,37.8c-2.3-1.5-4.6-2.7-7.4-2.4c-2.1,0.3-4.3,0.7-6.4,0.8c-2.1,0.1-3.1,1.5-4.4,3.4
	C85.3,39.7,91,36.6,97.1,37.8"/>
<path class="st0" d="M82.1,44.2c0.8-0.3,1.6-0.5,2.5-0.8c0.3,0.7,0.5,1.2,0.7,1.7c1,1.7,3.1,1.8,3.7,0c0.7-1.8,1.7-2,3.3-1.5
	c0.1,0,0.3,0,0.6-0.1C90.1,40.3,83.7,40.7,82.1,44.2"/>
<g>
	<g>
		<path class="st0" d="M74.2,71.3v0.5c1.3,0,3.1,0.1,4.4,0.1c0.2,0,0.5,0.1,0.7,0.2c3.1,0.7,6.2,0.5,9.4,0.2
			c1.5-0.1,2.6-0.4,3.5-0.6c-1.6,1.6-3.7,3.2-5.7,4c-2.4,0.9-6.3,1-9,1c-1.7,0-3.2-0.1-3.2-0.1l0,14.6c13.8-4.6,21.7-17.5,21.7-17.5
			s1.3-2.6,2.1-5.5c1.7-6.2,2.9-15.5,2.9-15.5c0.4-1.9,0.8-3.8,1.1-5.8c0.7-5.8,1.2-11.6,1.9-17.4c0.8-5.8,0.1-11.3-2.8-16.5
			c-1.7-3.2-4.2-5.8-6.9-8.1c-3.2-2.7-6.9-4.2-11.1-4.2c-2.7,0-5.5,0.2-8.4,0.3v17c0,0,0,0,0,0v0c2.5,0,5-0.2,7.5-0.7
			c2.5-0.5,5-1.1,7.5-2c0.7-0.3,1.5-0.3,2.4-0.3c1.3,0.1,2.7,0.7,3.6,1.5c0.7,0.6,1.3,1.4,1.5,2.3c0.1,0.4,0.2,0.9,0.3,1.3
			c1,3.8,1.9,7.6,2.6,11.5c0.5,2.8,0.5,5.7,0.8,9.8c0.6,3.4-0.2,7.7-1.2,12.1c-1,1-2.4,2.5-2.9,4.3c-0.8,3-2.1,8.9-2.1,10.2
			c0,0.2-0.1,0.5-0.3,0.8c-3.4,1-8.4,0-10.6-1.6c-0.9-0.6-1.8-1.2-2.6-1.8c-1.7-1.3-3.5-1.3-5.4-0.8c-0.4,0.1-1.2,0.1-1.5,0.1l0,4.6
			c0,0,0,0,0,0L74.2,71.3z"/>
	</g>
</g>
<path class="st0" d="M97.1,37.8c-2.3-1.5-4.6-2.7-7.4-2.4c-2.1,0.3-4.3,0.7-6.4,0.8c-2.1,0.1-3.1,1.5-4.4,3.4
	C85.3,39.7,91,36.6,97.1,37.8"/>
<path class="st0" d="M82.1,44.2c0.8-0.3,1.6-0.5,2.5-0.8c0.3,0.7,0.5,1.2,0.7,1.7c1,1.7,3.1,1.8,3.7,0c0.7-1.8,1.7-2,3.3-1.5
	c0.1,0,0.3,0,0.6-0.1C90.1,40.3,83.7,40.7,82.1,44.2"/>
<path class="st0" d="M40.1,62c0.9-0.3,1.8-0.5,2.8-0.8c0.3,0.7,0.5,1.2,0.8,1.7c1.1,1.7,3.9,1.4,4.7-0.4c0.8-1.8,1.5-1.6,3.3-1.1
	c0.2,0,0.4,0,0.6-0.1C49.1,58.2,41.8,58.6,40.1,62"/>
<g>
	<path class="st0" d="M76.8,135.7c-0.5,0-0.9-0.1-1.2-0.3c-0.3-0.2-0.5-0.4-0.7-0.7h0v0.9h-0.9v-8.4H75v3.2h0
		c0.1-0.3,0.3-0.5,0.6-0.7c0.3-0.2,0.7-0.3,1.2-0.3c0.7,0,1.3,0.2,1.7,0.7c0.4,0.5,0.6,1.1,0.6,1.9v1.1c0,0.8-0.2,1.4-0.7,1.9
		C78.1,135.4,77.5,135.7,76.8,135.7z M76.7,134.8c0.5,0,0.9-0.2,1.2-0.5c0.3-0.3,0.4-0.8,0.4-1.5v-0.7c0-0.6-0.1-1.1-0.4-1.5
		c-0.3-0.3-0.7-0.5-1.2-0.5c-0.3,0-0.5,0-0.7,0.1c-0.2,0.1-0.4,0.2-0.5,0.4c-0.1,0.2-0.3,0.4-0.3,0.6c-0.1,0.2-0.1,0.5-0.1,0.8v1.1
		c0,0.5,0.2,0.9,0.5,1.2C75.8,134.7,76.2,134.8,76.7,134.8z"/>
	<path class="st0" d="M88.9,129.4l-2.2,6.2l-0.2,0.4c-0.1,0.3-0.2,0.5-0.3,0.7c-0.1,0.2-0.2,0.3-0.4,0.5c-0.2,0.2-0.3,0.3-0.6,0.4
		c-0.2,0.1-0.5,0.1-0.8,0.1c-0.2,0-0.4,0-0.6,0V137c0.1,0,0.3,0,0.4,0c0.3,0,0.6-0.1,0.8-0.2s0.3-0.4,0.4-0.8l0.1-0.3l-2.3-6.2h1
		l1.7,5.2h0l1.7-5.2H88.9z"/>
	<path class="st0" d="M100.1,131v1.2c0,0.9,0.2,1.6,0.6,2s0.9,0.7,1.6,0.7c0.6,0,1.1-0.2,1.4-0.5c0.3-0.3,0.5-0.7,0.5-1.2h0.9
		c0,0.3-0.1,0.6-0.2,0.9c-0.1,0.3-0.3,0.6-0.5,0.8c-0.2,0.3-0.5,0.5-0.9,0.6c-0.4,0.2-0.8,0.2-1.3,0.2c-1,0-1.7-0.3-2.3-0.9
		c-0.6-0.6-0.8-1.5-0.8-2.6V131c0-1.1,0.3-2,0.8-2.6c0.6-0.6,1.3-0.9,2.3-0.9c0.5,0,0.9,0.1,1.3,0.2c0.4,0.2,0.7,0.4,0.9,0.6
		c0.2,0.3,0.4,0.5,0.5,0.9c0.1,0.3,0.2,0.6,0.2,1h-0.9c0-0.5-0.2-0.9-0.5-1.3s-0.8-0.6-1.5-0.6c-0.7,0-1.2,0.2-1.6,0.7
		S100.1,130.1,100.1,131z"/>
	<path class="st0" d="M115,129.4v6.1H114v-1H114c-0.1,0.3-0.3,0.6-0.6,0.8c-0.3,0.2-0.7,0.3-1.2,0.3c-0.7,0-1.2-0.2-1.5-0.5
		c-0.4-0.3-0.6-0.8-0.6-1.5v-4.3h0.9v4.1c0,0.9,0.5,1.4,1.4,1.4c0.5,0,0.9-0.1,1.2-0.4c0.3-0.3,0.5-0.7,0.5-1.1v-3.9H115z"/>
	<path class="st0" d="M120.3,135.6v-6.1h0.9v1h0c0.1-0.3,0.3-0.5,0.6-0.7c0.3-0.2,0.7-0.3,1.2-0.3c0.1,0,0.2,0,0.4,0v0.8
		c-0.1,0-0.2,0-0.5,0c-0.4,0-0.7,0.1-0.9,0.2c-0.3,0.1-0.4,0.3-0.6,0.5c-0.1,0.2-0.2,0.5-0.2,0.8v3.9H120.3z"/>
	<path class="st0" d="M128.2,129.4v-1.5h0.9v1.5h1.4v0.8h-1.4v3.7c0,0.3,0,0.4,0.1,0.6c0.1,0.1,0.2,0.2,0.3,0.3
		c0.1,0.1,0.3,0.1,0.6,0.1c0.2,0,0.3,0,0.5,0v0.8c-0.1,0-0.4,0-0.7,0c-0.4,0-0.6,0-0.9-0.1c-0.2-0.1-0.4-0.2-0.5-0.3
		c-0.1-0.2-0.2-0.3-0.2-0.5c0-0.2-0.1-0.5-0.1-0.8v-3.6h-0.9v-0.8H128.2z"/>
	<path class="st0" d="M146.8,135.6l-0.7-0.8c-0.7,0.6-1.6,1-2.5,1c-0.8,0-1.4-0.2-1.9-0.6c-0.5-0.4-0.8-1-0.8-1.6
		c0-0.5,0.1-0.9,0.4-1.3c0.3-0.4,0.7-0.7,1.2-0.9c0,0,0.1,0,0.1-0.1c0.1,0,0.1-0.1,0.2-0.1c-0.3-0.3-0.6-0.6-0.7-0.9
		s-0.3-0.6-0.3-0.9c0-0.5,0.2-0.9,0.6-1.2c0.4-0.3,0.8-0.5,1.4-0.5c0.4,0,0.7,0.1,1,0.2s0.5,0.4,0.7,0.6c0.2,0.3,0.3,0.6,0.3,0.9
		c0,0.4-0.1,0.8-0.4,1.1c-0.3,0.3-0.7,0.6-1.3,0.9l2,2.2c0.3-0.5,0.4-1.2,0.4-2.3V131h0.9v0.2c0,1.3-0.2,2.2-0.6,2.9l1.4,1.5H146.8z
		 M143,131.8c-0.4,0.2-0.7,0.4-0.9,0.7c-0.2,0.2-0.3,0.5-0.3,0.9c0,0.5,0.2,0.9,0.5,1.1c0.3,0.3,0.8,0.4,1.3,0.4
		c0.3,0,0.7-0.1,1-0.2s0.6-0.3,0.9-0.6l-2.3-2.5C143.1,131.7,143,131.8,143,131.8z M143.5,130.8c0.4-0.2,0.8-0.5,1-0.7
		c0.2-0.2,0.3-0.5,0.3-0.8c0-0.2,0-0.4-0.1-0.5c-0.1-0.2-0.2-0.3-0.4-0.4s-0.3-0.1-0.6-0.1c-0.3,0-0.6,0.1-0.8,0.3s-0.3,0.5-0.3,0.8
		c0,0.2,0.1,0.4,0.2,0.6C142.9,130.2,143.2,130.4,143.5,130.8z"/>
	<path class="st0" d="M164.1,135.6h-0.9v-3.7h-4.1v3.7h-0.9v-8h0.9v3.4h4.1v-3.4h0.9V135.6z"/>
	<path class="st0" d="M171.7,135.7c-0.8,0-1.4-0.2-1.9-0.7c-0.5-0.5-0.7-1.1-0.7-2v-1c0-0.8,0.2-1.5,0.7-1.9s1.1-0.7,1.8-0.7
		c0.7,0,1.3,0.2,1.8,0.7s0.7,1.1,0.7,1.9v0.8h-4.1v0.3c0,0.5,0.1,0.9,0.4,1.3s0.7,0.5,1.2,0.5c0.4,0,0.7-0.1,0.9-0.2
		c0.2-0.1,0.4-0.3,0.5-0.5h1c0,0.2-0.1,0.3-0.2,0.5s-0.3,0.3-0.4,0.5s-0.4,0.3-0.7,0.4C172.4,135.6,172.1,135.7,171.7,135.7z
		 M170.1,132h3.1v-0.1c0-0.4-0.1-0.7-0.2-0.9s-0.3-0.5-0.6-0.6c-0.2-0.1-0.5-0.2-0.8-0.2c-0.5,0-0.8,0.2-1.1,0.5
		c-0.3,0.3-0.4,0.8-0.4,1.3V132z"/>
	<path class="st0" d="M179,127.5c0-0.2,0.1-0.4,0.2-0.5c0.1-0.1,0.3-0.2,0.5-0.2c0.2,0,0.4,0.1,0.5,0.2c0.1,0.1,0.2,0.3,0.2,0.5
		c0,0.1,0,0.3-0.1,0.4c-0.1,0.1-0.1,0.2-0.2,0.2c-0.1,0.1-0.2,0.1-0.4,0.1c-0.2,0-0.4-0.1-0.5-0.2C179,127.9,179,127.7,179,127.5z
		 M179.2,135.6v-6.1h0.9v6.1H179.2z"/>
	<path class="st0" d="M187.6,129.3c0.5,0,0.9,0.1,1.2,0.3s0.5,0.4,0.6,0.7h0v-3.2h0.9v8.4h-0.9v-1h0c-0.1,0.3-0.3,0.5-0.6,0.7
		c-0.3,0.2-0.7,0.3-1.3,0.3c-0.7,0-1.3-0.2-1.7-0.7c-0.4-0.5-0.7-1.1-0.7-1.8v-1.3c0-0.8,0.2-1.4,0.7-1.8
		C186.3,129.5,186.9,129.3,187.6,129.3z M187.8,130.1c-0.5,0-0.9,0.2-1.2,0.5c-0.3,0.3-0.4,0.8-0.4,1.4v0.8c0,0.6,0.1,1.1,0.4,1.4
		c0.3,0.3,0.7,0.5,1.2,0.5s0.9-0.2,1.2-0.5c0.3-0.3,0.5-0.8,0.5-1.4v-1.1c0-0.5-0.2-0.9-0.5-1.2
		C188.7,130.3,188.3,130.1,187.8,130.1z"/>
	<path class="st0" d="M195.6,127.5c0-0.2,0.1-0.4,0.2-0.5c0.1-0.1,0.3-0.2,0.5-0.2c0.2,0,0.4,0.1,0.5,0.2c0.1,0.1,0.2,0.3,0.2,0.5
		c0,0.1,0,0.3-0.1,0.4c-0.1,0.1-0.1,0.2-0.2,0.2c-0.1,0.1-0.2,0.1-0.4,0.1c-0.2,0-0.4-0.1-0.5-0.2
		C195.6,127.9,195.6,127.7,195.6,127.5z M195.8,135.6v-6.1h0.9v6.1H195.8z"/>
</g>
<g>
	<path class="st0" d="M188.5,104.6c0,0.1,0,0.2,0,0.3c0,0.1,0,0.2,0,0.4c0,0,0,0-0.1,0s-0.1,0-0.1,0c-0.6,0-1-0.1-1.5-0.3
		c-0.4-0.2-0.8-0.5-1-0.9c-0.2-0.3-0.4-0.6-0.5-1c-0.1-0.4-0.2-0.8-0.2-1.3c0-0.6,0.1-1,0.2-1.5s0.4-0.8,0.7-1.1
		c0.3-0.3,0.6-0.5,1-0.6c0.4-0.2,0.8-0.2,1.1-0.2c0,0,0.1,0,0.1,0s0.1,0,0.1,0c0,0.1,0,0.1,0,0.2s0,0.2,0,0.4c0,0,0,0-0.1,0
		s0,0-0.1,0c-0.3,0-0.6,0.1-0.9,0.2s-0.5,0.3-0.7,0.4c-0.3,0.3-0.5,0.6-0.6,1c-0.1,0.4-0.2,0.8-0.2,1.3c0,0.5,0.1,1,0.2,1.3
		c0.1,0.4,0.3,0.7,0.6,1c0.2,0.2,0.4,0.3,0.7,0.5s0.6,0.2,0.9,0.2C188.4,104.6,188.4,104.6,188.5,104.6
		C188.5,104.6,188.5,104.6,188.5,104.6z"/>
	<path class="st0" d="M192.4,100.6c0,0.5-0.1,0.9-0.3,1.3c-0.2,0.4-0.5,0.7-0.9,0.8c-0.1,0.1-0.3,0.1-0.4,0.1
		c-0.2,0-0.4,0.1-0.6,0.1l0,2.2h-0.7c0-0.1,0-0.4,0-1.1s0-1.5,0-2.7c0-0.4,0-0.8,0-1.3c0-0.5,0-1.1,0-1.8c0.1,0,0.2,0,0.3,0
		c0.1,0,0.2,0,0.2,0c0.5,0,0.9,0.1,1.2,0.2c0.3,0.1,0.5,0.2,0.6,0.4c0.2,0.2,0.4,0.5,0.5,0.8C192.3,99.8,192.4,100.2,192.4,100.6z
		 M191.7,100.6c0-0.4-0.1-0.7-0.2-0.9s-0.3-0.5-0.4-0.6c-0.1-0.1-0.2-0.1-0.4-0.2c-0.1,0-0.3,0-0.5,0c0,0,0,0-0.1,0c0,0,0,0-0.1,0
		c0,0,0,0.3,0,0.8c0,0.5,0,0.9,0,1.1c0,0.3,0,0.6,0,0.9s0,0.6,0,0.7c0,0,0,0,0.1,0c0,0,0,0,0.1,0c0.1,0,0.3,0,0.4-0.1
		s0.3-0.1,0.4-0.2c0.2-0.1,0.3-0.3,0.4-0.6C191.6,101.3,191.7,101,191.7,100.6z"/>
	<path class="st0" d="M197,105.1h-0.7c0-0.1,0-0.4,0-0.9c0-0.5,0-1.3,0-2.4c-0.1,0-0.3,0-0.6,0s-0.5,0-0.6,0c-0.2,0-0.4,0-0.6,0
		s-0.4,0-0.5,0c0,0.7,0,1.4,0,2.1c0,0.7,0,1.1,0,1.2h-0.7c0-0.1,0-0.5,0-1c0-0.6,0-1.4,0-2.5c0-0.5,0-1,0-1.6c0-0.6,0-1.2,0-1.9h0.7
		c0,0.4,0,0.9,0,1.4s0,1.1,0,1.6c0.1,0,0.2,0,0.4,0s0.5,0,0.7,0c0.2,0,0.4,0,0.7,0c0.3,0,0.4,0,0.5,0c0-0.5,0-1,0-1.5
		c0-0.5,0-1,0-1.5h0.7c0,0.6,0,1.2,0,1.9c0,0.7,0,1.2,0,1.6c0,0.7,0,1.4,0,2.2S197,105,197,105.1z"/>
</g>
</svg>
